<svg width="24" height="24" viewBox="0 0 24 24" fill="none" xmlns="http://www.w3.org/2000/svg">
<path d="M12.9154 21.2623V21.5454L13.1963 21.5103C17.9239 20.9208 21.582 16.8884 21.582 12.0011C21.582 6.70841 17.2915 2.41781 11.9987 2.41781C6.70597 2.41781 2.41536 6.70841 2.41536 12.0011C2.41536 16.8883 6.07349 20.9208 10.8011 21.5103L11.082 21.5454V21.2623L11.082 14.3345V14.0845H10.832H8.4987C7.99244 14.0845 7.58203 13.6741 7.58203 13.1678C7.58203 12.6615 7.99244 12.2511 8.4987 12.2511H10.832H11.082V12.0011V9.66781C11.082 7.87288 12.5371 6.41781 14.332 6.41781H14.9154C15.4216 6.41781 15.832 6.82821 15.832 7.33447C15.832 7.84073 15.4216 8.25114 14.9154 8.25114H14.332C13.5496 8.25114 12.9154 8.88541 12.9154 9.66781V12.0011V12.2511H13.1654H15.4987C16.005 12.2511 16.4154 12.6615 16.4154 13.1678C16.4154 13.6741 16.005 14.0845 15.4987 14.0845H13.1654H12.9154V14.3345L12.9154 21.2623ZM23.4154 12.0011C23.4154 18.3063 18.3039 23.4178 11.9987 23.4178C5.69345 23.4178 0.582031 18.3063 0.582031 12.0011C0.582031 5.69589 5.69344 0.584473 11.9987 0.584473C18.3039 0.584473 23.4154 5.69589 23.4154 12.0011Z" fill="#333333" stroke="#F7F7F7" stroke-width="0.5"/>
</svg>
