<svg width="22" height="22" viewBox="0 0 22 22" fill="none" xmlns="http://www.w3.org/2000/svg">
<path d="M15.6667 0.75C18.7502 0.75 21.25 3.24975 21.25 6.33333V15.6667C21.25 18.7502 18.7502 21.25 15.6667 21.25H6.33333C3.24975 21.25 0.75 18.7502 0.75 15.6667L0.75 6.33333C0.75 3.24975 3.24975 0.75 6.33333 0.75L15.6667 0.75ZM15.6667 2.58333L6.33333 2.58333C4.26227 2.58333 2.58333 4.26227 2.58333 6.33333L2.58333 15.6667C2.58333 17.7378 4.26227 19.4167 6.33333 19.4167H15.6667C17.7378 19.4167 19.4167 17.7378 19.4167 15.6667V6.33333C19.4167 4.26227 17.7378 2.58333 15.6667 2.58333ZM11 6.58333C13.4392 6.58333 15.4167 8.56074 15.4167 11C15.4167 13.4392 13.4392 15.4167 11 15.4167C8.56074 15.4167 6.58333 13.4392 6.58333 11C6.58333 8.56074 8.56074 6.58333 11 6.58333ZM11 8.41667C9.57323 8.41667 8.41667 9.57323 8.41667 11C8.41667 12.4268 9.57323 13.5833 11 13.5833C12.4268 13.5833 13.5833 12.4268 13.5833 11C13.5833 9.57323 12.4268 8.41667 11 8.41667ZM16.25 4.83333C16.7563 4.83333 17.1667 5.24374 17.1667 5.75C17.1667 6.25626 16.7563 6.66667 16.25 6.66667C15.7437 6.66667 15.3333 6.25626 15.3333 5.75C15.3333 5.24374 15.7437 4.83333 16.25 4.83333Z" fill="#333333" stroke="#F7F7F7" stroke-width="0.5"/>
</svg>
