<svg width="28" height="28" viewBox="0 0 28 28" fill="none" xmlns="http://www.w3.org/2000/svg">
<path d="M3.22183 13.7994L3.22184 13.7994L23.1722 5.39925C24.2601 4.94118 25.4264 5.86111 25.2343 7.0258L22.5872 23.0753C22.3589 24.4595 20.8416 25.2466 19.5786 24.5605C18.3929 23.9165 16.6371 22.9271 15.0569 21.8945C14.2676 21.3787 13.5074 20.8428 12.8791 20.326L12.8791 20.326C12.4677 19.9878 12.0709 19.6246 11.7592 19.2517L11.6937 19.1733L11.5921 19.1633C10.4307 19.0481 8.96668 18.6385 7.6059 18.1899C5.95235 17.6447 4.30167 16.9892 3.22155 16.5415C1.97611 16.0252 2.0223 14.3044 3.22183 13.7994ZM11.5674 19.412C11.8933 19.8019 12.3035 20.1764 12.7203 20.5191L7.52761 18.4274C8.89083 18.8768 10.3769 19.294 11.5674 19.412ZM5.26527 14.9282L4.69844 15.1669L5.27103 15.3914C6.14978 15.7359 7.16702 16.1148 8.17993 16.4488L8.17996 16.4488C9.4927 16.8816 10.7038 17.2057 11.5838 17.3183L11.7055 17.3339L11.7923 17.2471L16.8536 12.1859L16.8536 12.1858C17.2115 11.8279 17.792 11.8279 18.1499 12.1858L18.3267 12.0091L18.1499 12.1859C18.5079 12.5438 18.5079 13.1242 18.1499 13.4822L13.5286 18.1036L13.3473 18.2849L13.5331 18.4616C13.6754 18.5968 13.8448 18.7466 14.0435 18.91L14.0435 18.91C14.6001 19.3677 15.2993 19.8628 16.0597 20.3598L16.0597 20.3598C17.5633 21.3422 19.2493 22.2946 20.4166 22.9294L20.7255 23.0973L20.7827 22.7504L23.2533 7.77006L23.327 7.32323L22.9096 7.49897L5.26527 14.9282Z" fill="#333333" stroke="#F7F7F7" stroke-width="0.5"/>
</svg>
