<svg width="28" height="28" viewBox="0 0 28 28" fill="none" xmlns="http://www.w3.org/2000/svg">
<path d="M13.2251 10.9949L13.2251 10.9949C13.1732 10.9191 13.1206 10.8412 13.0673 10.7625L13.0477 10.7334L13.0464 10.7316L12.6675 10.182C12.2712 9.62597 11.8229 9.07714 11.2679 8.67225C11.1028 8.55183 10.892 8.53681 10.7157 8.61235C9.70975 9.04349 8.8697 10.1308 8.90991 11.2234C8.91083 11.2484 8.91205 11.275 8.91364 11.3032L8.929 11.5001L8.95695 11.7317L9.00156 12.0008C9.1973 13.0348 9.78763 14.715 11.5368 16.4642C13.286 18.2134 14.9662 18.8037 16.0002 18.9994L16.2718 19.0444C16.3114 19.05 16.3498 19.055 16.3867 19.0595L16.6029 19.0809L16.7801 19.0911C17.8706 19.1299 18.956 18.2948 19.3862 17.2909C19.3862 17.2909 19.3862 17.2909 19.3862 17.2909L13.2251 10.9949ZM13.2251 10.9949C13.3725 11.2104 13.357 11.4959 13.194 11.6925L13.1261 11.7608L12.0638 12.5498L12.0638 12.5498M13.2251 10.9949L12.0638 12.5498M12.0638 12.5498C11.8626 12.6993 11.7879 12.9785 11.9155 13.2109L11.9155 13.211M12.0638 12.5498L11.9155 13.211M11.9155 13.211C12.1662 13.6672 12.6137 14.349 13.1328 14.8681C13.6521 15.3874 14.3645 15.8625 14.8485 16.1393C15.0505 16.2549 15.2926 16.216 15.4518 16.0707L15.4634 16.0601M11.9155 13.211L15.4634 16.0601M15.4634 16.0601L15.4736 16.0481M15.4634 16.0601L15.4736 16.0481M15.4736 16.0481L15.5184 15.9956L15.5284 15.9837M15.4736 16.0481L15.5284 15.9837M15.5284 15.9837L15.537 15.9707M15.5284 15.9837L15.537 15.9707M15.537 15.9707L16.2332 14.9103M15.537 15.9707L16.2332 14.9103M16.2332 14.9103C16.4215 14.6659 16.7685 14.613 17.0217 14.7879C17.0218 14.788 17.0219 14.7881 17.0221 14.7882L17.6535 15.2284L16.2332 14.9103ZM8.09461 23.7744L8.00164 23.7204L7.89848 23.7508L4.36119 24.7912C3.69274 24.9878 3.06756 24.408 3.18341 23.7463L3.21051 23.6323L4.24903 20.1014L4.2801 19.9957L4.22311 19.9015C3.18144 18.179 2.58203 16.1588 2.58203 14.0011C2.58203 7.69589 7.69344 2.58447 13.9987 2.58447C20.3039 2.58447 25.4154 7.69589 25.4154 14.0011C25.4154 20.3063 20.3039 25.4178 13.9987 25.4178C11.9856 25.4178 10.0923 24.8961 8.44877 23.9802L8.09461 23.7744ZM4.41536 14.0011C4.41536 15.8897 4.96069 17.6481 5.90213 19.1306C6.1003 19.4428 6.1846 19.8249 6.11959 20.2031L6.07827 20.3793L5.56497 22.1244L5.43565 22.5641L5.87535 22.4348L7.62721 21.9196C8.05918 21.7926 8.51042 21.8699 8.86922 22.0977C10.3518 23.0391 12.1101 23.5845 13.9987 23.5845C19.2915 23.5845 23.582 19.2939 23.582 14.0011C23.582 8.70841 19.2915 4.41781 13.9987 4.41781C8.70597 4.41781 4.41536 8.70841 4.41536 14.0011Z" fill="#333333" stroke="#F7F7F7" stroke-width="0.5"/>
</svg>
